<svg xmlns="http://www.w3.org/2000/svg" viewBox="0 0 348.051 217.509"><path d="M-1809.234,195.51a9.974,9.974,0,0,1-1.977-.2,9.939,9.939,0,0,1-1.274-.387c-.082-.028-.166-.052-.248-.074a2.96,2.96,0,0,1-.344-.11,9.953,9.953,0,0,1-1.3-.692c-.06-.036-.124-.068-.185-.1a2.066,2.066,0,0,1-.235-.13,10.037,10.037,0,0,1-1.516-1.245l-63.274-63.277a9.933,9.933,0,0,1-2.929-7.07,9.933,9.933,0,0,1,2.929-7.07,9.931,9.931,0,0,1,7.07-2.928,9.933,9.933,0,0,1,7.07,2.928l46.211,46.211V120.383a123.281,123.281,0,0,0-2.486-24.664,121.771,121.771,0,0,0-7.131-22.973,122.4,122.4,0,0,0-11.284-20.788,123.263,123.263,0,0,0-14.944-18.112A123.267,123.267,0,0,0-1873.192,18.9a122.407,122.407,0,0,0-20.789-11.284A121.775,121.775,0,0,0-1916.953.487,123.287,123.287,0,0,0-1941.618-2,123.283,123.283,0,0,0-1966.282.487a121.77,121.77,0,0,0-22.972,7.131A122.415,122.415,0,0,0-2010.043,18.9a123.258,123.258,0,0,0-18.112,14.944A123.263,123.263,0,0,0-2043.1,51.958a122.374,122.374,0,0,0-11.284,20.788,121.778,121.778,0,0,0-7.131,22.973A123.277,123.277,0,0,0-2064,120.383a10.011,10.011,0,0,1-10,10,10.011,10.011,0,0,1-10-10C-2084,41.873-2020.127-22-1941.618-22s142.383,63.873,142.383,142.383v40.985l46.217-46.212a9.928,9.928,0,0,1,7.07-2.929,9.931,9.931,0,0,1,7.07,2.929,9.931,9.931,0,0,1,2.929,7.07,9.931,9.931,0,0,1-2.929,7.07l-63.28,63.277a10.114,10.114,0,0,1-1.515,1.245,2.211,2.211,0,0,1-.23.127c-.062.031-.13.064-.192.1a9.972,9.972,0,0,1-1.3.692,2.932,2.932,0,0,1-.338.108c-.086.024-.172.047-.254.076a9.816,9.816,0,0,1-1.275.387A9.957,9.957,0,0,1-1809.234,195.51Z" transform="translate(2084 22)"/></svg>