<svg xmlns="http://www.w3.org/2000/svg" viewBox="0 0 505.596 390.234"><path d="M-1801,368.234a7.129,7.129,0,0,1-7.122-7.121V311.266a7.129,7.129,0,0,1,7.122-7.121,7.129,7.129,0,0,1,7.122,7.121v49.847A7.129,7.129,0,0,1-1801,368.234Zm140.866-47.129a7.074,7.074,0,0,1-5.035-2.086l-35.248-35.249a7.072,7.072,0,0,1-2.087-5.036,7.072,7.072,0,0,1,2.087-5.035,7.072,7.072,0,0,1,5.035-2.085,7.073,7.073,0,0,1,5.035,2.085l35.249,35.248a7.074,7.074,0,0,1,2.086,5.036,7.074,7.074,0,0,1-2.086,5.035A7.078,7.078,0,0,1-1660.134,321.106Zm-287.05,0a7.082,7.082,0,0,1-5.036-2.086,7.13,7.13,0,0,1,0-10.071l35.248-35.248a7.08,7.08,0,0,1,5.036-2.085,7.081,7.081,0,0,1,5.036,2.085,7.075,7.075,0,0,1,2.086,5.035,7.075,7.075,0,0,1-2.086,5.036l-35.249,35.249A7.075,7.075,0,0,1-1947.184,321.106Zm147.326-49.252a197.343,197.343,0,0,1-43.947-4.941,194.2,194.2,0,0,1-41.056-14.394,194.52,194.52,0,0,1-36.832-23.206,198.252,198.252,0,0,1-31.274-31.376,43.467,43.467,0,0,1-.139-54.155,194.658,194.658,0,0,1,153.244-74.717h.524a197.523,197.523,0,0,1,44.222,5,194,194,0,0,1,41.261,14.556,194.321,194.321,0,0,1,36.96,23.467,198.449,198.449,0,0,1,31.319,31.729,42.5,42.5,0,0,1,.138,52.492,194.554,194.554,0,0,1-153.9,75.55Zm.526-188.55h-.495a180.49,180.49,0,0,0-142.09,69.286,29.275,29.275,0,0,0,.1,36.477,180.54,180.54,0,0,0,141.965,68.544h.484a180.39,180.39,0,0,0,142.694-70.059,28.28,28.28,0,0,0-.091-34.933A184.17,184.17,0,0,0-1685.8,123.2a180.127,180.127,0,0,0-34.259-21.761,179.771,179.771,0,0,0-38.253-13.5A183.179,183.179,0,0,0-1799.331,83.3Zm-.155,144.835a57.747,57.747,0,0,1-57.682-57.681,57.747,57.747,0,0,1,57.682-57.681,57.746,57.746,0,0,1,57.68,57.681A57.746,57.746,0,0,1-1799.486,228.139Zm0-101.119a43.487,43.487,0,0,0-43.439,43.438,43.487,43.487,0,0,0,43.439,43.438,43.487,43.487,0,0,0,43.438-43.438A43.487,43.487,0,0,0-1799.486,127.021Zm244.164,53.218h-49.847a7.129,7.129,0,0,1-7.121-7.122A7.129,7.129,0,0,1-1605.17,166h49.847a7.128,7.128,0,0,1,7.12,7.121A7.129,7.129,0,0,1-1555.322,180.238Zm-441.507,0h-49.848a7.129,7.129,0,0,1-7.121-7.122,7.129,7.129,0,0,1,7.121-7.121h49.848a7.129,7.129,0,0,1,7.121,7.121A7.129,7.129,0,0,1-1996.829,180.238ZM-1911.937,69.3a7.08,7.08,0,0,1-5.036-2.085l-35.246-35.249a7.073,7.073,0,0,1-2.083-5.035,7.073,7.073,0,0,1,2.083-5.035,7.081,7.081,0,0,1,5.037-2.085,7.07,7.07,0,0,1,5.033,2.085l35.249,35.249a7.13,7.13,0,0,1,0,10.071A7.083,7.083,0,0,1-1911.937,69.3Zm216.555,0a7.07,7.07,0,0,1-5.035-2.085,7.072,7.072,0,0,1-2.087-5.035,7.072,7.072,0,0,1,2.087-5.035l35.248-35.248a7.072,7.072,0,0,1,5.035-2.085A7.075,7.075,0,0,1-1655.1,21.9a7.074,7.074,0,0,1,2.086,5.035,7.074,7.074,0,0,1-2.086,5.035l-35.249,35.248A7.073,7.073,0,0,1-1695.382,69.3ZM-1801,42.089a7.129,7.129,0,0,1-7.122-7.121V-14.879A7.129,7.129,0,0,1-1801-22a7.129,7.129,0,0,1,7.122,7.121V34.969A7.129,7.129,0,0,1-1801,42.089Z" transform="translate(2053.798 22)"/></svg>