<svg xmlns="http://www.w3.org/2000/svg" viewBox="0 0 129.034 165.29"><path d="M-1971.019,143.29h-44.833a4.308,4.308,0,0,1-4.3-4.3,4.308,4.308,0,0,1,4.3-4.3h18.113v-28.4h-25.872a34.317,34.317,0,0,1-11.315-1.909,34.369,34.369,0,0,1-9.824-5.346,34.368,34.368,0,0,1-7.6-8.21,34.321,34.321,0,0,1-4.631-10.5,34.319,34.319,0,0,1-.927-11.453,34.376,34.376,0,0,1,2.78-10.848,34.382,34.382,0,0,1,6.11-9.385,34.327,34.327,0,0,1,9.062-7.063,27.009,27.009,0,0,1-3.59-13.441,27.2,27.2,0,0,1,1.636-9.155,27.24,27.24,0,0,1,4.463-7.878,27.236,27.236,0,0,1,6.792-5.988,27.189,27.189,0,0,1,8.623-3.483,28.915,28.915,0,0,1,3.588-9.474,28.966,28.966,0,0,1,6.412-7.48,28.966,28.966,0,0,1,8.541-4.91A28.915,28.915,0,0,1-1993.511-22a28.916,28.916,0,0,1,9.975,1.765,28.965,28.965,0,0,1,8.541,4.91,28.963,28.963,0,0,1,6.412,7.48A28.916,28.916,0,0,1-1965,1.627a27.191,27.191,0,0,1,8.623,3.483,27.232,27.232,0,0,1,6.792,5.988,27.236,27.236,0,0,1,4.463,7.878,27.193,27.193,0,0,1,1.635,9.155,27.008,27.008,0,0,1-3.593,13.445,34.322,34.322,0,0,1,9.046,7.049,34.373,34.373,0,0,1,6.105,9.364,34.38,34.38,0,0,1,2.789,10.825,34.328,34.328,0,0,1-.9,11.433,34.321,34.321,0,0,1-4.6,10.5,34.371,34.371,0,0,1-7.57,8.224,34.372,34.372,0,0,1-9.8,5.37,34.324,34.324,0,0,1-11.3,1.942h-25.816v28.4h18.113a4.308,4.308,0,0,1,4.3,4.3A4.308,4.308,0,0,1-1971.019,143.29Zm-1.8-102.823a4.278,4.278,0,0,1,3.045,1.261,4.309,4.309,0,0,1,0,6.088l-19.362,19.362V97.682h25.816a25.717,25.717,0,0,0,8.927-1.691,25.764,25.764,0,0,0,7.59-4.516,25.766,25.766,0,0,0,5.629-6.806,25.722,25.722,0,0,0,3.043-8.562,25.713,25.713,0,0,0-.105-9.085,25.763,25.763,0,0,0-3.12-8.263,25.765,25.765,0,0,0-5.718-6.731,25.718,25.718,0,0,0-7.9-4.491l-6.2-2.152,4.3-4.862a18.464,18.464,0,0,0,4.535-9.114,18.463,18.463,0,0,0-.98-10.133,18.464,18.464,0,0,0-6.2-8.076,18.46,18.46,0,0,0-9.534-3.569l-3.7-.3-.258-3.7a20.346,20.346,0,0,0-6.413-13.572,20.345,20.345,0,0,0-13.959-5.519,20.346,20.346,0,0,0-13.96,5.519,20.345,20.345,0,0,0-6.413,13.572l-.257,3.7-3.7.3a18.465,18.465,0,0,0-9.506,3.557,18.463,18.463,0,0,0-6.194,8.041,18.465,18.465,0,0,0-1.013,10.1,18.465,18.465,0,0,0,4.472,9.111l4.3,4.862-6.2,2.151a25.717,25.717,0,0,0-7.986,4.449,25.764,25.764,0,0,0-5.8,6.732,25.765,25.765,0,0,0-3.178,8.3,25.712,25.712,0,0,0-.13,9.141,25.717,25.717,0,0,0,3.058,8.615,25.765,25.765,0,0,0,5.673,6.836,25.763,25.763,0,0,0,7.651,4.514,25.717,25.717,0,0,0,8.992,1.649h25.815V85.721l-18.845-18.91a4.31,4.31,0,0,1,0-6.089,4.277,4.277,0,0,1,3.044-1.261,4.277,4.277,0,0,1,3.044,1.261l12.757,12.908V22.839a4.308,4.308,0,0,1,4.3-4.3,4.308,4.308,0,0,1,4.3,4.3V55l13.273-13.273A4.276,4.276,0,0,1-1972.815,40.467Z" transform="translate(2058.033 22)"/></svg>